<?xml version="1.0" encoding="UTF-8" standalone="no"?>
<!-- Created with Inkscape (http://www.inkscape.org/) -->

<svg
   version="1.1"
   id="svg356"
   width="614.40002"
   height="181.44"
   viewBox="0 0 614.40002 181.44"
   sodipodi:docname="marmot-logo-transparent.svg"
   xml:space="preserve"
   inkscape:version="1.2.1 (9c6d41e410, 2022-07-14)"
   xmlns:inkscape="http://www.inkscape.org/namespaces/inkscape"
   xmlns:sodipodi="http://sodipodi.sourceforge.net/DTD/sodipodi-0.dtd"
   xmlns="http://www.w3.org/2000/svg"
   xmlns:svg="http://www.w3.org/2000/svg"><defs
     id="defs360"><rect
       x="195.00343"
       y="9.2858777"
       width="408.57862"
       height="104.79776"
       id="rect825" /><rect
       x="198.31982"
       y="12.602263"
       width="433.78315"
       height="125.35935"
       id="rect815" /><rect
       x="202.29948"
       y="10.612432"
       width="396.63964"
       height="107.45087"
       id="rect755" /><rect
       x="197.65654"
       y="0"
       width="417.20122"
       height="118.72658"
       id="rect551" /></defs><sodipodi:namedview
     id="namedview358"
     pagecolor="#505050"
     bordercolor="#eeeeee"
     borderopacity="1"
     inkscape:showpageshadow="0"
     inkscape:pageopacity="0"
     inkscape:pagecheckerboard="0"
     inkscape:deskcolor="#505050"
     showgrid="false"
     showguides="true"
     inkscape:zoom="4.2643227"
     inkscape:cx="216.56429"
     inkscape:cy="84.304126"
     inkscape:window-width="1920"
     inkscape:window-height="1001"
     inkscape:window-x="-9"
     inkscape:window-y="-9"
     inkscape:window-maximized="1"
     inkscape:current-layer="g362" /><g
     inkscape:groupmode="layer"
     inkscape:label="Image"
     id="g362"><text
       xml:space="preserve"
       id="text823"
       style="font-style:normal;font-variant:normal;font-weight:normal;font-stretch:normal;font-size:92px;line-height:0;font-family:'F1.8';-inkscape-font-specification:'F1.8';letter-spacing:1px;white-space:pre;shape-inside:url(#rect825);display:inline;fill:#015d98;fill-opacity:1;stroke:#ffffff;stroke-width:0;stroke-dasharray:none"
       transform="translate(2.3214694,13.577653)"><tspan
         x="195.00391"
         y="86.565156"
         id="tspan868"><tspan
           style="line-height:1"
           id="tspan866">MARMOT</tspan></tspan></text><text
       xml:space="preserve"
       style="font-style:normal;font-variant:normal;font-weight:normal;font-stretch:normal;font-size:39px;line-height:1;font-family:'F1.8';-inkscape-font-specification:'F1.8';letter-spacing:-0.05px;fill:#000000;stroke:#ffffff;stroke-width:0;stroke-dasharray:none;fill-opacity:1"
       x="17.089983"
       y="157.53596"
       id="text831"><tspan
         sodipodi:role="line"
         id="tspan829"
         x="17.089983"
         y="157.53596"
         style="font-size:39px;stroke-width:0;stroke-dasharray:none;fill:#000000;fill-opacity:1">A distributed SQLite replicator</tspan></text><path
       style="fill:#015d98;stroke-width:0.0581582;fill-opacity:1"
       d="m 21.978099,111.17862 c -0.776391,-0.0629 -2.076628,-0.26439 -2.489494,-0.38577 -0.420744,-0.12369 -1.111644,-0.49217 -1.50888,-0.80473 -0.381585,-0.30025 -0.393372,-0.35029 -0.246537,-1.04656 0.141943,-0.67308 0.365677,-1.04946 0.972438,-1.63587 1.101893,-1.06494 3.13948,-2.21923 5.715116,-3.2376 1.248369,-0.49358 7.70412,-2.80971 9.567018,-3.43236 5.614823,-1.876661 10.485952,-2.998352 14.306908,-3.294499 0.399838,-0.03099 1.852338,-0.08346 3.227778,-0.116607 5.778331,-0.13923 7.127174,-0.212423 8.694646,-0.471773 3.475531,-0.575062 8.264542,-2.658887 11.960662,-5.204412 0.292921,-0.201733 0.672403,-0.437267 0.843294,-0.523406 0.170891,-0.08614 0.402309,-0.252964 0.514264,-0.370723 0.111954,-0.117759 0.508659,-0.456321 0.881567,-0.752363 0.394862,-0.313473 0.691774,-0.593085 0.710963,-0.669546 0.01812,-0.0722 0.102932,-0.234052 0.188465,-0.359662 0.08553,-0.12561 0.574387,-1.013516 1.086348,-1.973126 0.868807,-1.628493 1.851866,-3.663115 3.453414,-7.147499 0.366054,-0.7964 0.880718,-1.817076 1.143704,-2.268168 0.262979,-0.451093 0.879706,-1.644562 1.370503,-2.652152 0.588339,-1.207859 1.230016,-2.406573 1.883504,-3.518569 0.945815,-1.609436 1.06241,-1.778371 2.548811,-3.693044 l 1.557662,-2.006457 1.637268,-1.325921 c 1.089163,-0.882042 2.66005,-2.056883 4.69244,-3.509395 2.486279,-1.776897 3.251314,-2.356501 4.108542,-3.112694 0.970067,-0.855728 1.207467,-1.028539 3.001677,-2.18499 1.07156,-0.690673 3.38771,-2.241577 5.147,-3.446452 l 3.1987,-2.190683 2.53289,-1.312173 2.5329,-1.312174 2.09067,-0.757566 c 1.14988,-0.416661 2.65337,-1.010437 3.34109,-1.319502 0.68772,-0.309064 1.90468,-0.836508 2.70435,-1.172096 3.2086,-1.346509 5.57844,-2.427187 6.68819,-3.049902 1.60831,-0.902475 3.71136,-2.180688 5.18164,-3.149352 l 1.28504,-0.84662 0.7764,-1.270707 c 1.47412,-2.412624 6.26191,-9.302957 7.36832,-10.604102 1.71159,-2.012832 1.63091,-1.935433 3.16624,-3.037664 3.22855,-2.317807 3.2369,-2.323084 4.36033,-2.754156 2.71163,-1.040486 3.09076,-1.161257 4.26584,-1.358883 l 1.105,-0.185842 3.54765,-0.05181 c 1.95121,-0.02849 3.80936,-0.06845 4.12923,-0.0888 0.419,-0.02665 1.04493,0.0051 2.23909,0.113494 2.86287,0.259918 4.21516,0.452953 6.13568,0.875848 1.70516,0.375471 1.77343,0.396049 3.00855,0.906866 0.69509,0.287473 1.72334,0.732632 2.28501,0.989243 1.66569,0.761025 3.40656,1.392009 3.84051,1.392009 0.3472,0 0.97252,0.222483 1.87797,0.668168 l 0.96855,0.476736 0.70155,0.692783 c 0.674,0.665587 0.70416,0.705805 0.76816,1.024462 0.0366,0.182423 0.13462,0.434461 0.21776,0.560084 l 0.15114,0.228405 -0.093,0.370152 c -0.0512,0.203583 -0.18854,0.691591 -0.30529,1.08446 l -0.21228,0.714309 0.1275,0.48613 c 0.0701,0.267371 0.12755,0.57404 0.12762,0.681487 0,0.375038 -0.19274,1.246136 -0.38869,1.754661 -0.10861,0.281852 -0.27437,0.851196 -0.36836,1.26521 -0.20229,0.891064 -0.26235,1.019049 -0.69062,1.471725 -0.6426,0.679217 -1.2283,0.971111 -2.22648,1.109622 l -0.27177,0.03771 0.13663,0.308925 0.13662,0.308924 -0.13879,0.382359 c -0.274,0.754839 -0.63228,1.324384 -1.146,1.821774 -0.70687,0.684374 -1.2465,1.094647 -1.67269,1.271713 -0.63531,0.263946 -1.79492,0.954549 -2.52434,1.503373 -0.3808,0.286513 -1.03967,0.713009 -1.46415,0.947767 -0.73582,0.406945 -0.8246,0.43994 -1.90522,0.708124 -1.54501,0.383428 -1.50887,0.352289 -2.17518,1.874235 -0.82953,1.894727 -1.41879,3.85687 -1.70229,5.668276 -0.15213,0.972123 -0.25396,1.397187 -0.61994,2.588038 -0.24085,0.783681 -0.60361,2.148825 -0.80612,3.033653 -0.70501,3.080309 -1.55276,5.887147 -2.61311,8.651786 -1.09283,2.849339 -1.67135,4.165462 -2.76289,6.285434 -1.05523,2.049457 -1.10152,2.153908 -1.34041,3.024225 l -0.24744,0.901451 -0.006,2.675276 c -0.006,2.399024 0.0441,6.220347 0.0993,7.619825 0.0174,0.442147 0.0442,0.561848 0.17066,0.762099 0.51669,0.818489 2.16388,1.538487 3.9291,1.717439 0.53594,0.05433 0.66493,0.04967 0.94095,-0.03399 0.4401,-0.133398 1.78505,-0.184036 2.55896,-0.09635 1.28578,0.145675 3.37476,0.654122 5.40204,1.314828 0.69862,0.227684 0.87743,0.310274 1.08396,0.500643 0.13603,0.125383 0.26015,0.295083 0.27583,0.377109 0.0274,0.143052 0.0199,0.147559 -0.1825,0.110524 -0.11606,-0.02124 -0.31705,-0.09732 -0.44665,-0.169077 -0.21936,-0.121452 -0.25953,-0.125581 -0.58158,-0.05976 -0.19027,0.03889 -0.41337,0.05795 -0.49578,0.04236 -0.0824,-0.01559 -0.29179,0.01611 -0.46527,0.07044 -0.21917,0.06863 -0.6615,0.113385 -1.44951,0.14664 -0.94891,0.04005 -1.32876,0.02918 -2.32633,-0.06654 -0.65573,-0.06293 -1.43404,-0.152723 -1.72957,-0.199552 -0.727,-0.115188 -0.7801,-0.110919 -1.10178,0.08862 -0.22311,0.138405 -0.42802,0.197453 -1.00709,0.290198 -0.39983,0.06404 -0.86742,0.155277 -1.03908,0.202745 -0.17166,0.04746 -0.43338,0.0967 -0.58159,0.109419 -0.14821,0.01272 -0.80893,0.207427 -1.46828,0.432691 -1.21711,0.415819 -3.34686,0.951421 -5.14043,1.292751 -0.4798,0.09131 -1.28226,0.259351 -1.78324,0.373422 -0.55065,0.125383 -1.05663,0.20631 -1.27947,0.204647 l -0.36862,-0.0027 -0.26171,-0.3296 c -0.39902,-0.502521 -1.81597,-1.941302 -2.5008,-2.539337 -1.65626,-1.446335 -2.77817,-2.227487 -4.82713,-3.360995 -1.62579,-0.89941 -4.67503,-2.434681 -5.0016,-2.518278 -0.41336,-0.105813 -2.41508,-0.201733 -2.9175,-0.1398 -0.46847,0.05774 -0.71918,0.156643 -0.98333,0.387897 -0.42208,0.369531 -3.65561,2.381967 -6.0733,3.779816 -2.18725,1.26462 -3.69004,2.076746 -6.51371,3.520098 -1.37544,0.703069 -3.78319,1.947299 -5.35055,2.76495 -5.75628,3.00291 -8.8826,4.409814 -11.01744,4.958083 -0.36591,0.09397 -0.71387,0.170857 -0.77325,0.170857 -0.0594,0 -0.3096,0.0648 -0.55604,0.144017 -2.99502,0.962657 -8.595299,1.13256 -16.267088,0.493512 C 90.545435,98.650179 88.400596,98.431336 86.816141,98.238053 86.171632,98.159433 85.554574,98.0951 85.4449,98.0951 c -0.312135,0 -0.827987,0.214046 -2.487605,1.032192 -4.242941,2.091658 -9.158459,3.957108 -14.190593,5.385368 -5.360898,1.52158 -12.726931,3.1001 -21.053255,4.51167 -6.407466,1.08625 -12.338502,1.71603 -17.592845,1.86808 -1.183519,0.0343 -2.845388,0.11492 -3.693044,0.17929 -1.812425,0.13762 -3.553964,0.17948 -4.449099,0.10696 z"
       id="path1676" /></g></svg>
