<?xml version="1.0" encoding="UTF-8" standalone="no"?>
<!-- Created with Inkscape (http://www.inkscape.org/) -->

<svg
   version="1.1"
   id="svg1962"
   width="1168.4"
   height="650.40002"
   viewBox="0 0 1168.4 650.40002"
   sodipodi:docname="sillouhette-smooth.svg"
   inkscape:version="1.2.1 (9c6d41e410, 2022-07-14)"
   xmlns:inkscape="http://www.inkscape.org/namespaces/inkscape"
   xmlns:sodipodi="http://sodipodi.sourceforge.net/DTD/sodipodi-0.dtd"
   xmlns="http://www.w3.org/2000/svg"
   xmlns:svg="http://www.w3.org/2000/svg">
  <defs
     id="defs1966" />
  <sodipodi:namedview
     id="namedview1964"
     pagecolor="#505050"
     bordercolor="#eeeeee"
     borderopacity="1"
     inkscape:showpageshadow="0"
     inkscape:pageopacity="0"
     inkscape:pagecheckerboard="0"
     inkscape:deskcolor="#505050"
     showgrid="false"
     inkscape:zoom="1.1211913"
     inkscape:cx="505.71207"
     inkscape:cy="325.99253"
     inkscape:window-width="1920"
     inkscape:window-height="1001"
     inkscape:window-x="-9"
     inkscape:window-y="-9"
     inkscape:window-maximized="1"
     inkscape:current-layer="g1968" />
  <g
     inkscape:groupmode="layer"
     inkscape:label="Image"
     id="g1968">
    <path
       style="fill:#015d98;stroke-width:0.4;fill-opacity:1"
       d="m 30.6,643.98606 c -5.339854,-0.43264 -14.282621,-1.8184 -17.122228,-2.6532 C 10.58398,640.4821 5.8321088,637.94778 3.1,635.79806 0.47554016,633.73302 0.39447045,633.38886 1.4043686,628.60002 2.3806245,623.9707 3.9194206,621.38206 8.0926004,617.34882 15.671195,610.02438 29.685302,602.08542 47.4,595.0813 c 8.586028,-3.39476 52.98737,-19.32464 65.8,-23.60704 38.61761,-12.90732 72.12024,-20.62208 98.4,-22.65892 2.75,-0.21316 12.74,-0.57404 22.2,-0.802 39.74218,-0.9576 49.01924,-1.461 59.8,-3.24476 23.904,-3.95516 56.84184,-18.28728 82.263,-35.79488 2.01464,-1.38748 4.62464,-3.00744 5.8,-3.59988 1.17535,-0.59244 2.767,-1.73984 3.537,-2.54976 0.77,-0.80992 3.49846,-3.13848 6.06324,-5.1746 2.71578,-2.156 4.75788,-4.07912 4.88986,-4.605 0.12464,-0.4966 0.70794,-1.60976 1.29622,-2.47368 0.58828,-0.86392 3.95052,-6.97077 7.47168,-13.57077 5.97548,-11.20044 12.73676,-25.19416 23.75188,-49.15904 2.51764,-5.47748 6.0574,-12.49748 7.86616,-15.6 1.80872,-3.10252 6.05044,-11.31096 9.42604,-18.24096 4.04648,-8.30741 8.4598,-16.55191 12.95436,-24.2 6.50512,-11.06937 7.30704,-12.23127 17.5302,-25.4 l 10.71328,-13.8 11.2608,-9.11942 c 7.49104,-6.0665 18.29528,-14.14682 32.27364,-24.1369 17.10012,-12.22114 22.36188,-16.20753 28.25772,-21.40847 6.67192,-5.88553 8.30472,-7.07409 20.64492,-15.02792 7.37,-4.75031 23.3,-15.41711 35.4,-23.704 l 22,-15.06707 17.42072,-9.02486 17.42076,-9.02486 14.37924,-5.21038 c 7.9086,-2.86572 18.24928,-6.94958 22.97928,-9.07527 4.73,-2.12568 13.1,-5.75333 18.6,-8.06143 22.06812,-9.26102 38.3674,-16.6937 46,-20.97661 11.0616,-6.20704 25.52596,-14.99833 35.63824,-21.6606 l 8.83824,-5.82288 5.33996,-8.73967 C 833.75516,107.94614 866.68456,60.555834 874.29424,51.606822 886.0662,37.762971 885.51132,38.29531 896.071,30.714389 918.27632,14.772981 918.33376,14.73669 926.06048,11.771863 944.71052,4.6156129 947.31808,3.7849784 955.4,2.4257439 L 963,1.14756 987.4,0.79123682 c 13.42,-0.19597776 26.2,-0.47080752 28.4,-0.61073281 2.8818,-0.18329065 7.1868,0.0349189 15.4,0.78058778 19.6902,1.78766211 28.991,3.11531471 42.2,6.02390241 11.7277,2.5824133 12.1972,2.7239421 20.6922,6.2372418 4.7807,1.977178 11.8528,5.038891 15.7158,6.803807 11.4563,5.234177 23.4296,9.573958 26.4142,9.573958 2.388,0 6.6888,1.530188 12.9164,4.595523 l 6.6614,3.278892 4.8251,4.764821 c 4.6357,4.577768 4.8431,4.85438 5.2833,7.046041 0.2519,1.254668 0.9259,2.988132 1.4977,3.85214 l 1.0395,1.570928 -0.6397,2.545828 c -0.3519,1.400204 -1.2967,4.75662 -2.0997,7.458696 l -1.46,4.912872 0.8769,3.3435 c 0.4823,1.838924 0.8773,3.948132 0.8777,4.687128 0,2.579436 -1.3256,8.570673 -2.6733,12.068205 -0.747,1.938516 -1.8871,5.854348 -2.5335,8.701852 -1.3913,6.128553 -1.8044,7.008813 -4.75,10.122223 -4.4196,4.67152 -8.4479,6.67911 -15.3132,7.63176 l -1.8692,0.25937 0.9397,2.12472 0.9396,2.12472 -0.9545,2.62979 c -1.8845,5.19163 -4.3487,9.10884 -7.882,12.52979 -4.8617,4.70698 -8.5732,7.52876 -11.5044,8.74658 -4.3696,1.81537 -12.3451,6.5652 -17.3619,10.33989 -2.6191,1.97059 -7.1506,4.90393 -10.0701,6.51855 -5.0608,2.79889 -5.6714,3.02582 -13.1038,4.87033 -10.6262,2.63714 -10.3776,2.42298 -14.9604,12.89061 -5.7053,13.03155 -9.7581,26.52677 -11.708,38.98525 -1.0463,6.68606 -1.7466,9.60957 -4.2638,17.8 -1.6565,5.39 -4.1515,14.77918 -5.5443,20.86484 -4.8489,21.18574 -10.6796,40.4906 -17.9725,59.50523 -7.5162,19.59717 -11.4952,28.64919 -19.0026,43.22993 -7.2576,14.09575 -7.576,14.81414 -9.21904,20.8 l -1.7018,6.2 -0.0438,18.4 c -0.0392,16.5 0.30328,42.78228 0.68308,52.4076 0.11996,3.041 0.30432,3.86428 1.17376,5.24156 3.5537,5.6294 14.8827,10.5814 27.0235,11.8122 3.6861,0.37368 4.5733,0.34164 6.4717,-0.23376 3.0269,-0.91748 12.2772,-1.26576 17.6,-0.66268 8.8433,1.00192 23.2109,4.49892 37.1542,9.04312 4.8049,1.56596 6.0347,2.134 7.4552,3.44332 0.9356,0.86236 1.7893,2.02953 1.8971,2.59369 0.1881,0.98388 0.1369,1.01488 -1.2552,0.76016 -0.7982,-0.14608 -2.1806,-0.66936 -3.0719,-1.16288 -1.5088,-0.83533 -1.785,-0.86373 -4,-0.411 -1.3087,0.26744 -2.8432,0.39856 -3.41,0.29136 -0.5668,-0.1072 -2.0068,0.1108 -3.2,0.48448 -1.5074,0.47204 -4.5496,0.77984 -9.9694,1.00856 -6.5264,0.27544 -9.1389,0.20072 -16,-0.45768 -4.51,-0.4328 -9.8631,-1.0504 -11.8957,-1.37249 -5.0001,-0.79224 -5.3653,-0.76288 -7.5777,0.60953 -1.5346,0.95192 -2.9439,1.35804 -6.9266,1.99592 -2.75,0.44048 -5.966,1.06796 -7.1466,1.39444 -1.1807,0.32644 -2.9807,0.66508 -4,0.75256 -1.0194,0.0875 -5.5637,1.42664 -10.0986,2.97596 -8.371,2.85992 -23.01896,6.54368 -35.35476,8.89128 -3.3,0.62804 -8.81912,1.78376 -12.26476,2.56832 -3.78732,0.86236 -7.26732,1.41896 -8.8,1.40752 l -2.53524,-0.0188 -1.8,-2.26692 c -2.7444,-3.45624 -12.48988,-13.35188 -17.2,-17.46504 -11.39144,-9.94761 -19.10768,-15.32021 -33.2,-23.11625 -11.18188,-6.18596 -32.15392,-16.74524 -34.4,-17.3202 -2.843,-0.72776 -16.6104,-1.38748 -20.066,-0.96152 -3.222,0.39712 -4.94632,1.07736 -6.76308,2.66788 -2.903,2.54156 -25.14256,16.38268 -41.77092,25.9968 -15.04352,8.6978 -25.37936,14.28345 -44.8,24.21053 -9.46,4.83556 -26.02,13.39312 -36.8,19.01676 -39.59052,20.6534 -61.09268,30.3298 -75.77568,34.10068 -2.51664,0.64632 -4.90988,1.17512 -5.31828,1.17512 -0.40844,0 -2.12936,0.44572 -3.82432,0.99052 -20.59912,6.62096 -59.11672,7.78952 -111.88172,3.39428 -11.61032,-0.96708 -26.36208,-2.47224 -37.25964,-3.8016 -4.4328,-0.54076 -8.6768,-0.9832 -9.43112,-0.9832 -2.1468,0 -5.69472,1.47216 -17.10924,7.0992 -29.18208,14.386 -62.99001,27.2162 -97.6,37.03952 -36.87117,10.46508 -87.53324,21.32184 -144.8,31.03028 -44.06924,7.47104 -84.8617,11.80256 -121,12.84828 -8.14,0.23556 -19.57,0.79044 -25.4,1.23312 -12.465488,0.94652 -24.443444,1.23448 -30.6,0.73564 z"
       id="path2089" />
  </g>
</svg>
